/* XPM */
static char * X_xpm[] = {
"100 100 19 1",
" 	c #605860",
".	c #808080",
"+	c #383040",
"@	c #A8A8A0",
"#	c #181818",
"$	c #000000",
"%	c #C8D0C0",
"&	c #0060B0",
"*	c #1898E0",
"=	c #78C8F8",
"-	c #E0E8D8",
";	c #980000",
">	c #F8F8F8",
",	c #F88058",
"'	c #D03800",
")	c #B87020",
"!	c #D8A860",
"~	c #A8B0B8",
"{	c #F8E098",
"    ................................................................................................",
"    ................................................................................................",
"    ................................................................................................",
"    ................................................................................................",
"....+++++++++++++++++++++++++++++++++++++++++++++++++++++++++++++++++++++++++++@@@@@@@@@@@@@@@@@....",
"....+++++++++++++++++++++++++++++++++++++++++++++++++++++++++++++++++++++++++++@@@@@@@@@@@@@@@@@....",
"....+++++++++++++++++++++++++++++++++++++++++++++++++++++++++++++++++++++++++++@@@@@@@@@@@@@@@@@....",
"....+++++++++++++++++++++++++++++++++++++++++++++++++++++++++++++++++++++++++++@@@@@@@@@@@@@@@@@....",
"....+++++++++++++++++++++++++++++++++++++++++++++++++++++++++++++++++++++++++++@@@@@@@@@@@@@@@@@....",
"....+++++++++++++++++++++++++++++++++++++++++++++++++++++++++++++++++++++++++++@@@@@@@@@@@@@@@@@....",
"....+++++++++++++++++++++++++++++++++++++++++++++++++++++++++++++++++++++++++++@@@@@@@@@@@@@@@@@....",
"....+++++++++++++++++++++++++++++++++++++++++++++++++++++++++++++++++++++++++++@@@@@@@@@@@@@@@@@....",
"....+++++++++++++####++++++++#####$$$$$$$$$$$$$$$$$$$$$$$$$$$$$$$..........    %%%%@@@@@@@@@@@@@....",
"....+++++++++++++####++++++++#####$$$$$$$$$$$$$$$$$$$$$$$$$$$$$$$..........    %%%%@@@@@@@@@@@@@....",
"....+++++++++++++####++++++++#####$$$$$$$$$$$$$$$$$$$$$$$$$$$$$$$..........    %%%%@@@@@@@@@@@@@....",
"....+++++++++++++####++++++++#####$$$$$$$$$$$$$$$$$$$$$$$$$$$$$$$..........    %%%%@@@@@@@@@@@@@....",
"....+++++++++++++####++++++++#$$$$&&&&*****=============*****&&&&$$$$......    %%%%@@@@@@@@@@@@@....",
"....++++++++++++++++++++++++++$$$$&&&&*****=============*****&&&&$$$$@@....    %%%%@@@@@@@@@@@@@....",
"....++++++++++++++++++++++++++$$$$&&&&*****=============*****&&&&$$$$@@....    %%%%@@@@@@@@@@@@@....",
"....++++++++++++++++++++++++++$$$$&&&&*****=============*****&&&&$$$$@@....    %%%%@@@@@@@@@@@@@....",
"....+++++++++++++++++++++$$$$$&&&&===============================&&&&$$$$..    %%%%@@@@@@@@@@@@@....",
"....####++++#############$$$$$&&&&===============================&&&&$$$$..    %%%%@@@@@@@@@@@@@....",
"....####++++#############$$$$$&&&&===============================&&&&$$$$..    %%%%@@@@@@@@@@@@@....",
"....####++++#############$$$$$&&&&===============================&&&&$$$$..    %%%%@@@@@@@@@@@@@....",
"....####++++#############$$$$$&&&&===============================&&&&$$$$..    %%%%@@@@@@@@@@@@@....",
"....+++++++++++++####++++$$$$$=======================================$$$$..    %%%%%%%%%%%%%@@@@....",
"....+++++++++++++####++++$$$$$=======================================$$$$..    %%%%%%%%%%%%%@@@@....",
"....+++++++++++++####++++$$$$$=======================================$$$$..    %%%%%%%%%%%%%@@@@....",
"....+++++++++++++####$$$$*****====****=======================****====****$$$$$ %%%%%%%%%%%%%@@@@....",
"....#################$$$$*****====****=======================****====****$$$$$ ----%%%%%%%%%@@@@....",
"....#################$$$$*****====****=======================****====****$$$$$ ----%%%%%%%%%@@@@....",
"....#################$$$$*****====****=======================****====****$$$$$ ----%%%%%%%%%@@@@....",
"....#################$$$$*****====****=======================****====****$$$$$ ----%%%%%%%%%@@@@....",
"....$$$$$$$$$$$$$$$$$$$$$=====;;;;>>>>*****=============*****>>>>;;;;====$$$$$ ----%%%%%%%%%@@@@....",
"....$$$$$$$$$$$$$$$$$$$$$=====;;;;>>>>*****=============*****>>>>;;;;====$$$$$ ----%%%%%%%%%@@@@....",
"....$$$$$$$$$$$$$$$$$$$$$=====;;;;>>>>*****=============*****>>>>;;;;====$$$$$ ----%%%%%%%%%@@@@....",
"....$$$$$$$$$$$$$$$$$$$$$=====;;;;>>>>*****=============*****>>>>;;;;====$$$$$ ----%%%%%%%%%@@@@....",
"....$$$$$$$$         $$$$=====;;;;$$$$=======================$$$$;;;;====$$$$$ %%%%@@@@@@@@@@@@@....",
"....$$$$$$$$         $$$$=====;;;;$$$$=======================$$$$;;;;====$$$$$ %%%%@@@@@@@@@@@@@....",
"....$$$$$$$$         $$$$=====;;;;$$$$=======================$$$$;;;;====$$$$$ %%%%@@@@@@@@@@@@@....",
"....$$$$$$$$         $$$$=====;;;;$$$$=======================$$$$;;;;====$$$$$ %%%%@@@@@@@@@@@@@....",
"....$$$$$$$$         $$$$*****,,,,;;;;=======================;;;;,,,,****$$$$$ %%%%@@@@@@@@@@@@@....",
"....$$$$####.....    $$$$*****,,,,;;;;=======================;;;;,,,,****$$$$$ ----%%%%%%%%%@@@@....",
"....$$$$####.....    $$$$*****,,,,;;;;=======================;;;;,,,,****$$$$$ ----%%%%%%%%%@@@@....",
"....$$$$####.....    $$$$*****,,,,;;;;=======================;;;;,,,,****$$$$$ ----%%%%%%%%%@@@@....",
"....$$$$####.....        $$$$$=============****=====****=============$$$$@@    ----%%%%%%%%%@@@@....",
"....        @@@@@....    $$$$$=============****=====****=============$$$$@@    %%%%%%%%%%%%%@@@@....",
"....        @@@@@....    $$$$$=============****=====****=============$$$$@@    %%%%%%%%%%%%%@@@@....",
"....        @@@@@....    $$$$$=============****=====****=============$$$$@@    %%%%%%%%%%%%%@@@@....",
"....        @@@@@....$$$$*****$$$$****'''''''''''''''''''''''****$$$$****$$$$$ %%%%%%%%%%%%%@@@@....",
"....        @@@@@....$$$$*****$$$$****'''''''''''''''''''''''****$$$$****$$$$$ ----%%%%%%%%%%%%%....",
"....        @@@@@....$$$$*****$$$$****'''''''''''''''''''''''****$$$$****$$$$$ ----%%%%%%%%%%%%%....",
"....        @@@@@....$$$$*****$$$$****'''''''''''''''''''''''****$$$$****$$$$$ ----%%%%%%%%%%%%%....",
"....        @@@@@....$$$$*****$$$$****'''''''''''''''''''''''****$$$$****$$$$$ ----%%%%%%%%%%%%%....",
"....        @@@@$$$$$====*****&&&&$$$$$$$$$*************$$$$$$$$$&&&&****=====$$$$-%%%%%%%%%@@@@....",
"....        @@@@$$$$$====*****&&&&$$$$$$$$$*************$$$$$$$$$&&&&****=====$$$$-%%%%%%%%%@@@@....",
"....        @@@@$$$$$====*****&&&&$$$$$$$$$*************$$$$$$$$$&&&&****=====$$$$-%%%%%%%%%@@@@....",
"....        @@@@$$$$$====*****&&&&$$$$$$$$$*************$$$$$$$$$&&&&****=====$$$$-%%%%%%%%%@@@@....",
"....        $$$$=====****&&&&&))))))))!!!!!&&&&$$$$$$$$$!!!!!))))))))&&&&*****====$$$$$%%%%%%%%%....",
"....        $$$$=====****&&&&&))))))))!!!!!&&&&$$$$$$$$$!!!!!))))))))&&&&*****====$$$$$%%%%%%%%%....",
"....        $$$$=====****&&&&&))))))))!!!!!&&&&$$$$$$$$$!!!!!))))))))&&&&*****====$$$$$%%%%%%%%%....",
"....        $$$$=====****&&&&&))))))))!!!!!&&&&$$$$$$$$$!!!!!))))))))&&&&*****====$$$$$%%%%%%%%%....",
"....        $$$$$$$$$$$$$~~~~~))))!!!!)))))))))))))))))))))))!!!!))))~~~~$$$$$$$$$$$$$$@@@@@@@@@....",
"....        $$$$$$$$$$$$$~~~~~))))!!!!)))))))))))))))))))))))!!!!))))~~~~$$$$$$$$$$$$$$@@@@@@@@@....",
"....        $$$$$$$$$$$$$~~~~~))))!!!!)))))))))))))))))))))))!!!!))))~~~~$$$$$$$$$$$$$$@@@@@@@@@....",
"....        $$$$$$$$$$$$$~~~~~))))!!!!)))))))))))))))))))))))!!!!))))~~~~$$$$$$$$$$$$$$@@@@@@@@@....",
"....                 $$$$~~~~~))))))))!!!!!{{{{))))){{{{!!!!!))))))))~~~~$$$$$ %%%%@@@@@@@@@@@@@....",
"....        .........$$$$~~~~~))))))))!!!!!{{{{))))){{{{!!!!!))))))))~~~~$$$$$ ----%%%%%%%%%@@@@....",
"....        .........$$$$~~~~~))))))))!!!!!{{{{))))){{{{!!!!!))))))))~~~~$$$$$ ----%%%%%%%%%@@@@....",
"....        .........$$$$~~~~~))))))))!!!!!{{{{))))){{{{!!!!!))))))))~~~~$$$$$ ----%%%%%%%%%@@@@....",
"....        .........    $$$$$****&&&&)))))))))!!!!!)))))))))&&&&****$$$$@@    ----%%%%%%%%%@@@@....",
"....        @@@@@........$$$$$****&&&&)))))))))!!!!!)))))))))&&&&****$$$$@@    ----%%%%%%%%%@@@@....",
"....        @@@@@........$$$$$****&&&&)))))))))!!!!!)))))))))&&&&****$$$$@@    ----%%%%%%%%%@@@@....",
"....        @@@@@........$$$$$****&&&&)))))))))!!!!!)))))))))&&&&****$$$$@@    ----%%%%%%%%%@@@@....",
"....        @@@@@....$$$$*****====****$$$$$$$$$$$$$$$$$$$$$$$****====****$$$$$ ----%%%%%%%%%@@@@....",
"....        @@@@@....$$$$*****====****$$$$$$$$$$$$$$$$$$$$$$$****====****$$$$$ ----%%%%%%%%%%%%%....",
"....        @@@@@....$$$$*****====****$$$$$$$$$$$$$$$$$$$$$$$****====****$$$$$ ----%%%%%%%%%%%%%....",
"....        @@@@@....$$$$*****====****$$$$$$$$$$$$$$$$$$$$$$$****====****$$$$$ ----%%%%%%%%%%%%%....",
"....        @@@@@....$$$$*****====****$$$$$$$$$$$$$$$$$$$$$$$****====****$$$$$ ----%%%%%%%%%%%%%....",
"....                 $$$$=========$$$$        %%%%@@@@....   $$$$========$$$$$ %%%%@@@@@@@@@@@@@....",
"....                 $$$$=========$$$$        %%%%@@@@....   $$$$========$$$$$ %%%%@@@@@@@@@@@@@....",
"....                 $$$$=========$$$$        %%%%@@@@....   $$$$========$$$$$ %%%%@@@@@@@@@@@@@....",
"....                     $$$$$$$$$$$$$        %%%%@@@@....   $$$$$$$$$$$$@@    %%%%@@@@@@@@@@@@@....",
"@@@@        .........    $$$$$$$$$$$$$....    %%%%%%%%@@@@   $$$$$$$$$$$$@@    %%%%%%%%%%%%%@@@@....",
"@@@@        .........    $$$$$$$$$$$$$....    %%%%%%%%@@@@   $$$$$$$$$$$$@@    %%%%%%%%%%%%%@@@@....",
"@@@@        .........    $$$$$$$$$$$$$....    %%%%%%%%@@@@   $$$$$$$$$$$$@@    %%%%%%%%%%%%%@@@@....",
"@@@@        .........    $$$$$$$$$$$$$....    %%%%%%%%@@@@   $$$$$$$$$$$$@@    %%%%%%%%%%%%%@@@@....",
"@@@@....    @@@@@........    @@@@@@@@.....    %%%%%%%%@@@@    %%%%%@@@@@@@@    %%%%%%%%%%%%%@@@@....",
"@@@@....    @@@@@........    @@@@@@@@.....    %%%%%%%%@@@@    %%%%%@@@@@@@@    %%%%%%%%%%%%%@@@@....",
"@@@@....    @@@@@........    @@@@@@@@.....    %%%%%%%%@@@@    %%%%%@@@@@@@@    %%%%%%%%%%%%%@@@@....",
"@@@@....    @@@@@........    @@@@@@@@.....    %%%%%%%%@@@@    %%%%%@@@@@@@@    %%%%%%%%%%%%%@@@@....",
"@@@@....    @@@@@........    @@@@@@@@.....    %%%%%%%%@@@@    %%%%%@@@@@@@@    %%%%%%%%%%%%%@@@@....",
"%%%%....    @@@@@@@@@....    @@@@.........    @@@@@@@@....    %%%%%%%%%@@@@    ----%%%%%%%%%%%%%....",
"%%%%....    @@@@@@@@@....    @@@@.........    @@@@@@@@....    %%%%%%%%%@@@@    ----%%%%%%%%%%%%%....",
"%%%%....    @@@@@@@@@....    @@@@.........    @@@@@@@@....    %%%%%%%%%@@@@    ----%%%%%%%%%%%%%....",
"%%%%....    @@@@@@@@@....    @@@@.........    @@@@@@@@....    %%%%%%%%%@@@@    ----%%%%%%%%%%%%%....",
"%%%%%%%%@@@@@@@@@@@@@@@@@@@@@.......................................................................",
"%%%%%%%%@@@@@@@@@@@@@@@@@@@@@.......................................................................",
"%%%%%%%%@@@@@@@@@@@@@@@@@@@@@.......................................................................",
"%%%%%%%%@@@@@@@@@@@@@@@@@@@@@......................................................................."};
