/* XPM */
static char *_82e1059857c4c019c84ea04f65edcf7Hu7ky3eQi8zAZwUw[] = {
/* columns rows colors chars-per-pixel */
"100 100 9 1 ",
"  c black",
". c #9C6000",
"X c #DAAD00",
"o c #F6ED00",
"O c #DEC652",
"+ c #E7D65A",
"@ c #F7E752",
"# c #EFDE63",
"$ c #F6F6F6",
/* pixels */
"++++++++++++#########+++++++++++++++++++++############+++++++++++++++++OOOOOOOO++++++++#############",
"++++++++++++#########+++++++++++++++++++++############+++++++++++++++++OOOOOOOO++++++++#############",
"++++++++++++#########+++++++++++++++++++++############+++++++++++++++++OOOOOOOO++++++++#############",
"++++++++++++#########+++++++++++++++++++++############+++++++++++++++++OOOOOOOO++++++++#############",
"++++####+++++++++########+++++++++++++++++++++####@@@@########++++++++++++++++++++++++++++++++++++++",
"++++####+++++++++########+++++++++++++++++++++####@@@@########++++++++++++++++++++++++++++++++++++++",
"++++####+++++++++########+++++++++++++++++++++####@@@@########++++++++++++++++++++++++++++++++++++++",
"++++####+++++++++########+++++++++++++++++++++####@@@@########++++++++++++++++++++++++++++++++++++++",
"############+++++++++OOOOOOOO++++#########++++++++#################+++++++++++++++++++++++++++++++++",
"############+++++++++OOOOOOOO++++#########++++++++#################+++++++++++++++++++++++++++++++++",
"############+++++++++OOOOOOOO++++#########++++++++#################+++++++++++++++++++++++++++++++++",
"############+++++++++OOOOOOOO++++#########++++++++#################+++++++++++++++++++++++++++++++++",
"++++++++++++OOOOOOOOOOOOO++++####@@@@@@@@@####++++++++####+++++++++OOOO++++########++++OOOOOOOOO++++",
"++++++++++++OOOOOOOOOOOOO++++####@@@@@@@@@####++++++++####+++++++++OOOO++++########++++OOOOOOOOO++++",
"++++++++++++OOOOOOOOOOOOO++++####@@@@@@@@@####++++++++####+++++++++OOOO++++########++++OOOOOOOOO++++",
"++++++++++++OOOOOOOOOOOOO++++####@@@@@@@@@####++++++++####+++++++++OOOO++++########++++OOOOOOOOO++++",
"++++++++++++OOOOOOOOOOOOO++++####@@@@@@@@@####++++++++####+++++++++OOOO++++########++++OOOOOOOOO++++",
"OOOOOOOO+++++++++OOOO++++++++++++#########++++++++++++++++OOOOOOOOO++++++++++++########+++++++++++++",
"OOOOOOOO+++++++++OOOO++++++++++++#########++++++++++++++++OOOOOOOOO++++++++++++########+++++++++++++",
"OOOOOOOO+++++++++OOOO++++++++++++#########++++++++++++++++OOOOOOOOO++++++++++++########+++++++++++++",
"OOOOOOOO+++++++++OOOO++++++++++++#########++++++++++++++++OOOOOOOOO++++++++++++########+++++++++++++",
"+++++++++++++++++++++++++########+++++++++OOOO++++############++++++++++++++++++++++++++++++++++OOOO",
"+++++++++++++++++++++++++########+++++++++OOOO++++############++++++++++++++++++++++++++++++++++OOOO",
"+++++++++++++++++++++++++########+++++++++OOOO++++############++++++++++++++++++++++++++++++++++OOOO",
"+++++++++++++++++++++++++########+++++++++OOOO++++############++++++++++++++++++++++++++++++++++OOOO",
"####@@@@@@@@#####++++++++++++OOOOOOOOOO                     +++++++########+++++++++++++++++++++++++",
"####@@@@@@@@#####++++++++++++OOOOOOOOOO                     +++++++########+++++++++++++++++++++++++",
"####@@@@@@@@#####++++++++++++OOOOOOOOOO                     +++++++########+++++++++++++++++++++++++",
"####@@@@@@@@#####++++++++++++OOOOOOOOOO                     +++++++########+++++++++++++++++++++++++",
"@@@@@@@@####++++++++++++++++++++       XXXXXXXoooooooXXXXXXX        @@@########++++++++#####@@@@@@@@",
"@@@@@@@@####++++++++++++++++++++       XXXXXXXoooooooXXXXXXX        @@@########++++++++#####@@@@@@@@",
"@@@@@@@@####++++++++++++++++++++       XXXXXXXoooooooXXXXXXX        @@@########++++++++#####@@@@@@@@",
"@@@@@@@@####++++++++++++++++++++       XXXXXXXoooooooXXXXXXX        @@@########++++++++#####@@@@@@@@",
"####++++OOOOOOOOO++++++++#######       XXXXXXXoooooooXXXXXXX        ###++++OOOO+++++++++++++####@@@@",
"####++++OOOOOOOOO++++++++###    XXXoooooooo.................ooooXXXX   ++++OOOO+++++++++++++####@@@@",
"####++++OOOOOOOOO++++++++###    XXXoooooooo.................ooooXXXX   ++++OOOO+++++++++++++####@@@@",
"####++++OOOOOOOOO++++++++###    XXXoooooooo.................ooooXXXX   ++++OOOO+++++++++++++####@@@@",
"++++++++OOOOOOOOOOOOO+++++++    XXXoooooooo.................ooooXXXX   OOOO+++++++++++++++++++++####",
"++++++++OOOOOOOOOOOOO++++   XXXXooooooooooo...XXXXooooooo.......ooooXXX    +++++++++++++++++++++####",
"++++++++OOOOOOOOOOOOO++++   XXXXooooooooooo...XXXXooooooo.......ooooXXX    +++++++++++++++++++++####",
"++++++++OOOOOOOOOOOOO++++   XXXXooooooooooo...XXXXooooooo.......ooooXXX    +++++++++++++++++++++####",
"++++++++OOOOOOOOOOOOO++++   XXXXooooooooooo...XXXXooooooo.......ooooXXX    +++++++++++++++++++++####",
"+++++++++++++++++++++####   XXXXooooooooooo...XXXXooooooo.......ooooXXX    ++++OOOOOOOOOOOOOOOOO++++",
"+++++++++++++++++++++####   ooooooooooooooo...XXXXooooooo...XXXXooooooo    ++++OOOOOOOOOOOOOOOOO++++",
"+++++++++++++++++++++####   ooooooooooooooo...XXXXooooooo...XXXXooooooo    ++++OOOOOOOOOOOOOOOOO++++",
"+++++++++++++++++++++####   ooooooooooooooo...XXXXooooooo...XXXXooooooo    ++++OOOOOOOOOOOOOOOOO++++",
"+++++++++++++++++++++++++   ooooooooooooooo...XXXXooooooo...XXXXooooooo    ####++++OOOOOOOOO++++++++",
"+++++++++++++++++++++++++   $$$$ooooooooooo...XXXX..........oooooooo$$$    ####++++OOOOOOOOO++++++++",
"+++++++++++++++++++++++++   $$$$ooooooooooo...XXXX..........oooooooo$$$    ####++++OOOOOOOOO++++++++",
"+++++++++++++++++++++++++   $$$$ooooooooooo...XXXX..........oooooooo$$$    ####++++OOOOOOOOO++++++++",
"++++########+++++++++++++   $$$$ooooooooooo...XXXX..........oooooooo$$$    ########+++++++++++++++++",
"++++########+++++++++++++   $$$$ooooooooooo...XXXX..........oooooooo$$$    ########+++++++++++++++++",
"++++########+++++++++++++   XXXX$$$$$$$oooo...XXXXoooooooooo$$$$$$$$XXX    ########+++++++++++++++++",
"++++########+++++++++++++   XXXX$$$$$$$oooo...XXXXoooooooooo$$$$$$$$XXX    ########+++++++++++++++++",
"++++####@@@@@@@@@@@@@@@@@   XXXX$$$$$$$oooo...XXXXoooooooooo$$$$$$$$XXX    ####++++OOOO+++++++++++++",
"++++####@@@@@@@@@@@@@@@@@   XXXX$$$$$$$oooo...XXXXoooooooooo$$$$$$$$XXX    ####++++OOOO+++++++++++++",
"++++####@@@@@@@@@@@@@@@@@   XXXX$$$$$$$oooo...XXXXoooooooooo$$$$$$$$XXX    ####++++OOOO+++++++++++++",
"++++####@@@@@@@@@@@@@@@@@   .......XXXXoooo$$$$$$$$$$$$$$oooXXXX.......    ####++++OOOO+++++++++++++",
"########++++#############   .......XXXXoooo$$$$$$$$$$$$$$oooXXXX.......    ++++OOOOOOOOOOOOO++++####",
"########++++#############   .......XXXXoooo$$$$$$$$$$$$$$oooXXXX.......    ++++OOOOOOOOOOOOO++++####",
"########++++#############   .......XXXXoooo$$$$$$$$$$$$$$oooXXXX.......    ++++OOOOOOOOOOOOO++++####",
"########++++#############+++    ...........XXXXXXXXXXXXXX...........   ####++++OOOOOOOOOOOOO++++####",
"####+++++++++++++####+++++++    ...........XXXXXXXXXXXXXX...........   ++++++++++++++++#####@@@@@@@@",
"####+++++++++++++####+++++++    ...........XXXXXXXXXXXXXX...........   ++++++++++++++++#####@@@@@@@@",
"####+++++++++++++####+++++++    ...........XXXXXXXXXXXXXX...........   ++++++++++++++++#####@@@@@@@@",
"####+++++++++++++####+++++++    ...........XXXXXXXXXXXXXX...........   ++++++++++++++++#####@@@@@@@@",
"####+++++++++++++####++++++++OOO       .....................        +++++++++++++++++++#####@@@@@@@@",
"++++########++++++++++++++++++++       .....................        #######++++####@@@@#############",
"++++########++++++++++++++++++++       .....................        #######++++####@@@@#############",
"++++########++++++++++++++++++++       .....................        #######++++####@@@@#############",
"++++########+++++++++++++++++++++++++++                     +++++++########++++####@@@@#############",
"OOOO++++#############++++++++########@@                     ++#########@@@@@@@@@@@@#########++++++++",
"OOOO++++#############++++++++########@@                     ++#########@@@@@@@@@@@@#########++++++++",
"OOOO++++#############++++++++########@@                     ++#########@@@@@@@@@@@@#########++++++++",
"OOOO++++#############++++++++########@@                     ++#########@@@@@@@@@@@@#########++++++++",
"++++OOOOOOOO+++++####++++####@@@@@@@@@@@@@+++++++++++++++++++++++++++++####@@@@####+++++++++++++++++",
"++++OOOOOOOO+++++####++++####@@@@@@@@@@@@@+++++++++++++++++++++++++++++####@@@@####+++++++++++++++++",
"++++OOOOOOOO+++++####++++####@@@@@@@@@@@@@+++++++++++++++++++++++++++++####@@@@####+++++++++++++++++",
"++++OOOOOOOO+++++####++++####@@@@@@@@@@@@@+++++++++++++++++++++++++++++####@@@@####+++++++++++++++++",
"+++++++++++++++++++++++++########++++#####++++++++++++++++OOOOOOOOO++++++++####OOOOOOOO+++++++++++++",
"+++++++++++++++++++++++++########++++#####++++++++++++++++OOOOOOOOO++++++++####OOOOOOOO+++++++++++++",
"+++++++++++++++++++++++++########++++#####++++++++++++++++OOOOOOOOO++++++++####OOOOOOOO+++++++++++++",
"+++++++++++++++++++++++++########++++#####++++++++++++++++OOOOOOOOO++++++++####OOOOOOOO+++++++++++++",
"++++++++OOOOOOOOOOOOO####@@@@@@@@+++++++++################+++++++++++++++++OOOOOOOO+++++++++++++++++",
"++++++++OOOOOOOOOOOOO####@@@@@@@@+++++++++################+++++++++++++++++OOOOOOOO+++++++++++++++++",
"++++++++OOOOOOOOOOOOO####@@@@@@@@+++++++++################+++++++++++++++++OOOOOOOO+++++++++++++++++",
"++++++++OOOOOOOOOOOOO####@@@@@@@@+++++++++################+++++++++++++++++OOOOOOOO+++++++++++++++++",
"OOOOOOOOOOOOOOOOO++++####++++####@@@@@@@@@####################+++++++++++++++++#############++++++++",
"OOOOOOOOOOOOOOOOO++++####++++####@@@@@@@@@####################+++++++++++++++++#############++++++++",
"OOOOOOOOOOOOOOOOO++++####++++####@@@@@@@@@####################+++++++++++++++++#############++++++++",
"OOOOOOOOOOOOOOOOO++++####++++####@@@@@@@@@####################+++++++++++++++++#############++++++++",
"OOOOOOOOOOOOOOOOO++++####++++####@@@@@@@@@####################+++++++++++++++++#############++++++++",
"+++++++++++++++++++++++++++++#################+++++++++++++++++++++++++########@@@@@@@@#############",
"+++++++++++++++++++++++++++++#################+++++++++++++++++++++++++########@@@@@@@@#############",
"+++++++++++++++++++++++++++++#################+++++++++++++++++++++++++########@@@@@@@@#############",
"+++++++++++++++++++++++++++++#################+++++++++++++++++++++++++########@@@@@@@@#############",
"########+++++++++####++++############++++++++++++++++++++++++++++++########++++OOOO+++++++++########",
"########+++++++++####++++############++++++++++++++++++++++++++++++########++++OOOO+++++++++########",
"########+++++++++####++++############++++++++++++++++++++++++++++++########++++OOOO+++++++++########",
"########+++++++++####++++############++++++++++++++++++++++++++++++########++++OOOO+++++++++########"
};