/* XPM */
static char *xpm_[] = {
/* columns rows colors chars-per-pixel */
"100 100 4 1 ",
"  c #DEC652",
". c #E7D65A",
"X c #F7E752",
"o c #EFDE63",
/* pixels */
"............ooooooooo.....................oooooooooooo.................        ........ooooooooooooo",
"............ooooooooo.....................oooooooooooo.................        ........ooooooooooooo",
"............ooooooooo.....................oooooooooooo.................        ........ooooooooooooo",
"............ooooooooo.....................oooooooooooo.................        ........ooooooooooooo",
"....oooo.........oooooooo.....................ooooXXXXoooooooo......................................",
"....oooo.........oooooooo.....................ooooXXXXoooooooo......................................",
"....oooo.........oooooooo.....................ooooXXXXoooooooo......................................",
"....oooo.........oooooooo.....................ooooXXXXoooooooo......................................",
"oooooooooooo.........        ....ooooooooo........ooooooooooooooooo.................................",
"oooooooooooo.........        ....ooooooooo........ooooooooooooooooo.................................",
"oooooooooooo.........        ....ooooooooo........ooooooooooooooooo.................................",
"oooooooooooo.........        ....ooooooooo........ooooooooooooooooo.................................",
"............             ....ooooXXXXXXXXXoooo........oooo.........    ....oooooooo....         ....",
"............             ....ooooXXXXXXXXXoooo........oooo.........    ....oooooooo....         ....",
"............             ....ooooXXXXXXXXXoooo........oooo.........    ....oooooooo....         ....",
"............             ....ooooXXXXXXXXXoooo........oooo.........    ....oooooooo....         ....",
"............             ....ooooXXXXXXXXXoooo........oooo.........    ....oooooooo....         ....",
"        .........    ............ooooooooo................         ............oooooooo.............",
"        .........    ............ooooooooo................         ............oooooooo.............",
"        .........    ............ooooooooo................         ............oooooooo.............",
"        .........    ............ooooooooo................         ............oooooooo.............",
".........................oooooooo.........    ....oooooooooooo..................................    ",
".........................oooooooo.........    ....oooooooooooo..................................    ",
".........................oooooooo.........    ....oooooooooooo..................................    ",
".........................oooooooo.........    ....oooooooooooo..................................    ",
"ooooXXXXXXXXooooo............             ....        .............oooooooo.........................",
"ooooXXXXXXXXooooo............             ....        .............oooooooo.........................",
"ooooXXXXXXXXooooo............             ....        .............oooooooo.........................",
"ooooXXXXXXXXooooo............             ....        .............oooooooo.........................",
"XXXXXXXXoooo.........................ooooooooo    ............oooooXXXXoooooooo........oooooXXXXXXXX",
"XXXXXXXXoooo.........................ooooooooo    ............oooooXXXXoooooooo........oooooXXXXXXXX",
"XXXXXXXXoooo.........................ooooooooo    ............oooooXXXXoooooooo........oooooXXXXXXXX",
"XXXXXXXXoooo.........................ooooooooo    ............oooooXXXXoooooooo........oooooXXXXXXXX",
"oooo....         ........ooooooooooooooooo........ooooXXXXooooooooooooo....    .............ooooXXXX",
"oooo....         ........ooooooooooooooooo........ooooXXXXooooooooooooo....    .............ooooXXXX",
"oooo....         ........ooooooooooooooooo........ooooXXXXooooooooooooo....    .............ooooXXXX",
"oooo....         ........ooooooooooooooooo........ooooXXXXooooooooooooo....    .............ooooXXXX",
"........             .........................ooooXXXXXXXXXXXXooooo        .....................oooo",
"........             .........................ooooXXXXXXXXXXXXooooo        .....................oooo",
"........             .........................ooooXXXXXXXXXXXXooooo        .....................oooo",
"........             .........................ooooXXXXXXXXXXXXooooo        .....................oooo",
"........             .........................ooooXXXXXXXXXXXXooooo        .....................oooo",
".....................oooooooo.............ooooXXXXXXXXoooo.....................                 ....",
".....................oooooooo.............ooooXXXXXXXXoooo.....................                 ....",
".....................oooooooo.............ooooXXXXXXXXoooo.....................                 ....",
".....................oooooooo.............ooooXXXXXXXXoooo.....................                 ....",
"..................................................        .........oooooooooooo....         ........",
"..................................................        .........oooooooooooo....         ........",
"..................................................        .........oooooooooooo....         ........",
"..................................................        .........oooooooooooo....         ........",
"....oooooooo.............XXXXooooooooooooo....................oooooXXXXXXXXoooooooo.................",
"....oooooooo.............XXXXooooooooooooo....................oooooXXXXXXXXoooooooo.................",
"....oooooooo.............XXXXooooooooooooo....................oooooXXXXXXXXoooooooo.................",
"....oooooooo.............XXXXooooooooooooo....................oooooXXXXXXXXoooooooo.................",
"....ooooXXXXXXXXXXXXXXXXXoooooooo....     ................ooooXXXXXXXXXoooooooo....    .............",
"....ooooXXXXXXXXXXXXXXXXXoooooooo....     ................ooooXXXXXXXXXoooooooo....    .............",
"....ooooXXXXXXXXXXXXXXXXXoooooooo....     ................ooooXXXXXXXXXoooooooo....    .............",
"....ooooXXXXXXXXXXXXXXXXXoooooooo....     ................ooooXXXXXXXXXoooooooo....    .............",
"oooooooo....ooooooooooooo........             ........ooooooooooooo....oooo....             ....oooo",
"oooooooo....ooooooooooooo........             ........ooooooooooooo....oooo....             ....oooo",
"oooooooo....ooooooooooooo........             ........ooooooooooooo....oooo....             ....oooo",
"oooooooo....ooooooooooooo........             ........ooooooooooooo....oooo....             ....oooo",
"oooo.............oooo........             .............................................oooooXXXXXXXX",
"oooo.............oooo........             .............................................oooooXXXXXXXX",
"oooo.............oooo........             .............................................oooooXXXXXXXX",
"oooo.............oooo........             .............................................oooooXXXXXXXX",
"oooo.............oooo........             .............................................oooooXXXXXXXX",
"....oooooooo..................................oooooooo.............oooooooo....ooooXXXXooooooooooooo",
"....oooooooo..................................oooooooo.............oooooooo....ooooXXXXooooooooooooo",
"....oooooooo..................................oooooooo.............oooooooo....ooooXXXXooooooooooooo",
"....oooooooo..................................oooooooo.............oooooooo....ooooXXXXooooooooooooo",
"    ....ooooooooooooo........ooooooooXXXXXXXXXoooo............oooooooooXXXXXXXXXXXXooooooooo........",
"    ....ooooooooooooo........ooooooooXXXXXXXXXoooo............oooooooooXXXXXXXXXXXXooooooooo........",
"    ....ooooooooooooo........ooooooooXXXXXXXXXoooo............oooooooooXXXXXXXXXXXXooooooooo........",
"    ....ooooooooooooo........ooooooooXXXXXXXXXoooo............oooooooooXXXXXXXXXXXXooooooooo........",
"....        .....oooo....ooooXXXXXXXXXXXXX.............................ooooXXXXoooo.................",
"....        .....oooo....ooooXXXXXXXXXXXXX.............................ooooXXXXoooo.................",
"....        .....oooo....ooooXXXXXXXXXXXXX.............................ooooXXXXoooo.................",
"....        .....oooo....ooooXXXXXXXXXXXXX.............................ooooXXXXoooo.................",
".........................oooooooo....ooooo................         ........oooo        .............",
".........................oooooooo....ooooo................         ........oooo        .............",
".........................oooooooo....ooooo................         ........oooo        .............",
".........................oooooooo....ooooo................         ........oooo        .............",
"........             ooooXXXXXXXX.........oooooooooooooooo.................        .................",
"........             ooooXXXXXXXX.........oooooooooooooooo.................        .................",
"........             ooooXXXXXXXX.........oooooooooooooooo.................        .................",
"........             ooooXXXXXXXX.........oooooooooooooooo.................        .................",
"                 ....oooo....ooooXXXXXXXXXoooooooooooooooooooo.................ooooooooooooo........",
"                 ....oooo....ooooXXXXXXXXXoooooooooooooooooooo.................ooooooooooooo........",
"                 ....oooo....ooooXXXXXXXXXoooooooooooooooooooo.................ooooooooooooo........",
"                 ....oooo....ooooXXXXXXXXXoooooooooooooooooooo.................ooooooooooooo........",
"                 ....oooo....ooooXXXXXXXXXoooooooooooooooooooo.................ooooooooooooo........",
".............................ooooooooooooooooo.........................ooooooooXXXXXXXXooooooooooooo",
".............................ooooooooooooooooo.........................ooooooooXXXXXXXXooooooooooooo",
".............................ooooooooooooooooo.........................ooooooooXXXXXXXXooooooooooooo",
".............................ooooooooooooooooo.........................ooooooooXXXXXXXXooooooooooooo",
"oooooooo.........oooo....oooooooooooo..............................oooooooo....    .........oooooooo",
"oooooooo.........oooo....oooooooooooo..............................oooooooo....    .........oooooooo",
"oooooooo.........oooo....oooooooooooo..............................oooooooo....    .........oooooooo",
"oooooooo.........oooo....oooooooooooo..............................oooooooo....    .........oooooooo"
};
