/* XPM */
static char *dc9cc68432e445c5d77a48de758f9a88yAt10VGA4AuIWUeW[] = {
/* columns rows colors chars-per-pixel */
"100 100 10 1 ",
"  c #204010",
". c #505020",
"X c #784040",
"o c #388800",
"O c #A08020",
"+ c #80C830",
"@ c #DEC652",
"# c #E7D65A",
"$ c #F7E752",
"% c #EFDE63",
/* pixels */
"############%%%%%%%%%#####################%%%%%%%%%%%%#################@@@@@@@@########%%%%%%%%%%%%%",
"############%%%%%%%%%#####################%%%%%%%%%%%%#################@@@@@@@@########%%%%%%%%%%%%%",
"############%%%%%%%%%#####################%%%%%%%%%%%%#################@@@@@@@@########%%%%%%%%%%%%%",
"############%%%%%%%%%#####################%%%%%%%%%%%%#################@@@@@@@@########%%%%%%%%%%%%%",
"####%%%%#########%%%%%%%%#####################%%%%$$$$%%%%%%%%######################################",
"####%%%%#########%%%%%%%%#####################%%%%$$$$%%%%%%%%######################################",
"####%%%%#########%%%%%%%%#####################%%%%$$$$%%%%%%%%######################################",
"####%%%%#########%%%%%%%%#####################%%%%$$$$%%%%%%%%######################################",
"%%%%%%%%%%%%#########@@@@@@@@####%%%%%%%%%########%%%%%%%%%%%%%%%%%#################################",
"%%%%%%%%%%%%#########@@@@@@@@####%%%%%%%%%########%%%%%%%%%%%%%%              ######################",
"%%%%%%%%%%%%#########@@@@@@@@####%%%%%%%%%########%%%%%%%%%%%%%%              ######################",
"%%%%%%%%%%%%#########@@@@@@@@####%%%%%%%%%########%%%%%%%%%%%%%%              ######################",
"############@@@@@@@@@@@@@####%%%%$$$$$$$$$%%%%########%%%%######              %%%%%####@@@@@@@@@####",
"############@@@@@@@@@@@@@####%%%%$$$$$$$$$%%%%########          oooooooooo++++      ###@@@@@@@@@####",
"############@@@@@@@@@@@@@####%%%%$$$$$$$$$%%%%########          oooooooooo++++      ###@@@@@@@@@####",
"############@@@@@@@@@@@@@####%%%%$$$$$$$$$%%%%########          oooooooooo++++      ###@@@@@@@@@####",
"############@@@@@@@@@@@@@####%%%%$$$$$$$$$%%%%########          oooooooooo++++      ###@@@@@@@@@####",
"@@@@@@@@#########@@@@############%%%%%%%%%############          oooooooooo++++      %%%#############",
"@@@@@@@@#########@@@@############%%%%%%%%%############          oooooooooo++++      %%%#############",
"@@@@@@@@#########@@               %%%%%%%%######      ooooooooooooooo+++++++++++++++     ###########",
"@@@@@@@@#########@@               %%%%%%%%######      ooooooooooooooo+++++++++++++++     ###########",
"###################               ########@@@@##      ooooooooooooooo+++++++++++++++     #######@@@@",
"###################               ########@@@@##      ooooooooooooooo+++++++++++++++     #######@@@@",
"###################               ########@@@@##      ooooooooooooooo+++++++++++++++     #######@@@@",
"#############      ++++++++++ooooo          @@##          ooooooooooo+++++++++++++++     #######@@@@",
"%%%%$$$$$$$$%      ++++++++++ooooo          ##@@          ooooooooooo+++++++++++++++     ###########",
"%%%%$$$$$$$$%      ++++++++++ooooo          ##@@          ooooooooooo+++++++++++++++     ###########",
"%%%%$$$$$$$$%      ++++++++++ooooo          ##@@          ooooooooooo+++++++++++++++     ###########",
"%%%%$$$$$$$$%      ++++++++++ooooo          ##@@          ooooooooooo+++++++++++++++     ###########",
"$$$$$$$$%    +++++++++++ooooooooooooooo                   oooooooooooooooo++++oooooo     %%%$$$$$$$$",
"$$$$$$$$%    +++++++++++ooooooooooooooo                   oooooooooooooooo++++oooooo     %%%$$$$$$$$",
"$$$$$$$$%    +++++++++++ooooooooooooooo                   oooooooooooooooo++++oooooo     %%%$$$$$$$$",
"$$$$$$$$%    +++++++++++ooooooooooooooo                   oooooooooooooooo++++oooooo     %%%$$$$$$$$",
"%%%%####@    +++++++++++ooooooooooooooo                   oooooooooooooooo++++oooooo     ###%%%%$$$$",
"%%%%####@    ++++++ooooo+++++ooooo                    oooo      oooooooooooooo      ########%%%%$$$$",
"%%%%####@    ++++++ooooo+++++ooooo                    oooo      oooooooooooooo      ########%%%%$$$$",
"%%%%####@    ++++++ooooo+++++ooooo                    oooo      oooooooooooooo      ########%%%%$$$$",
"########@    ++++++ooooo+++++ooooo                    oooo      oooooooooooooo      ############%%%%",
"########@    ++++++ooooo+++++ooooo                    oooo      oooooooooooooo      ############%%%%",
"########@@@@@      ooooooooooooooo                                   ooooooooooooooo     #######%%%%",
"########@@@@@      ooooooooooooooo                                   ooooooooooooooo     #######%%%%",
"########@@@@@      ooooooooooooooo                                   ooooooooooooooo     #######%%%%",
"#############      ooooooooooooooo                                   ooooooooooooooo     @@@@@@@####",
"#############      ooooooooooooooo                                   ooooooooooooooo     @@@@@@@####",
"#########    oooooooooooooooo                         ..........                    @@@@@@@@@@@@####",
"#########    oooooooooooooooo                         ..........                    @@@@@@@@@@@@####",
"#########    oooooooooooooooo                         ..........                    @@@@@@@@########",
"#########    oooooooooooooooo                         ..........                    @@@@@@@@########",
"#########                         ..........    ..........      ###%%%%%%%%%%%%####@@@@@@@@@########",
"#########                         ..........    ..........      ###%%%%%%%%%%%%####@@@@@@@@@########",
"####%%%%%                         ..........    ..........      %%%$$$$$$$$%%%%%%%%#################",
"####%%%%%                         ..........    ..........      %%%$$$$$$$$%%%%%%%%#################",
"####%%%%%                         ..........    ..........      %%%$$$$$$$$%%%%%%%%#################",
"####%%%%%                         ..........    ..........      %%%$$$$$$$$%%%%%%%%#################",
"####%%%%$$$$$                          .....    ......    %%%%$$$$$$$$$%%%%%%%%####@@@@#############",
"####%%%%$$$$$                          .....    ......    %%%%$$$$$$$$$%%%%%%%%####@@@@#############",
"####%%%%$$$$$                          .....    ......    %%%%$$$$$$$$$%%%%%%%%####@@@@#############",
"####%%%%$$$$$                          .....    ......    %%%%$$$$$$$$$%%%%%%%%####@@@@#############",
"%%%%%%%%####%%%%%%%%%%%%          @@@@@     OOOO......    %%%%%%%%%####%%%%####@@@@@@@@@@@@@####%%%%",
"%%%%%%%%####%%%%%%%%%%%%          @@@@@     OOOO......    %%%%%%%%%####%%%%####@@@@@@@@@@@@@####%%%%",
"%%%%%%%%####%%%%%%%%%%%%          @@@@@     OOOO......    %%%%%%%%%####%%%%####@@@@@@@@@@@@@####%%%%",
"%%%%%%%%####%%%%%%%%%%%%          @@@@@     OOOO......    %%%%%%%%%####%%%%####@@@@@@@@@@@@@####%%%%",
"%%%%#############%%%%###          @@@@@     OOOO......    #############################%%%%%$$$$$$$$",
"%%%%#############%%%%###          @@@@@     OOOO......    #############################%%%%%$$$$$$$$",
"%%%%#############%%%%########@@@@@@@@@@     OOOO......    #############################%%%%%$$$$$$$$",
"%%%%#############%%%%########@@@@@@@@@@     OOOO......    #############################%%%%%$$$$$$$$",
"%%%%#############%%%%########@@@@@@@@@@     OOOO......    #############################%%%%%$$$$$$$$",
"####%%%%%%%%###########################     OOOO......    #########%%%%%%%%####%%%%$$$$%%%%%%%%%%%%%",
"####%%%%%%%%###########################     OOOO......    #########%%%%%%%%####%%%%$$$$%%%%%%%%%%%%%",
"####%%%%%%%%#################ooooo          ....OOOOOO....      ooooo%%%%%%####%%%%$$$$%%%%%%%%%%%%%",
"####%%%%%%%%#################ooooo          ....OOOOOO....      ooooo%%%%%%####%%%%$$$$%%%%%%%%%%%%%",
"@@@@####%%%%%%%%%%%%%########ooooo          ....OOOOOO....      ooooo%%$$$$$$$$$$$$%%%%%%%%%########",
"@@@@####%%%%%%%%%%%%%########ooooo          ....OOOOOO....      ooooo%%$$$$$$$$$$$$%%%%%%%%%########",
"@@@@####%%%%%%%%%%%%%########ooooo          ....OOOOOO....      ooooo%%$$$$$$$$$$$$%%%%%%%%%########",
"@@@@####%%%%%%%%%%%%%###ooooo     XXXXXOOOOO....OOOOOOOOOO......     ooooo$$$$$$$$$%%%%%%%%%########",
"####@@@@@@@@#####%%%%###ooooo     XXXXXOOOOO....OOOOOOOOOO......     ooooo%$$$$%%%%#################",
"####@@@@@@@@#####%%%%###ooooo     XXXXXOOOOO....OOOOOOOOOO......     ooooo%$$$$%%%%#################",
"####@@@@@@@@#####%%%%###ooooo     XXXXXOOOOO....OOOOOOOOOO......     ooooo%$$$$%%%%#################",
"####@@@@@@@@#####%%%%###ooooo          XXXXXOOOO......OOOO           ooooo%$$$$%%%%#################",
"########################ooooo          XXXXXOOOO......OOOO           ooooo#%%%%@@@@@@@@#############",
"########################ooooo          XXXXXOOOO......OOOO           ooooo#%%%%@@@@@@@@#############",
"########################ooooo          XXXXXOOOO......OOOO           ooooo#%%%%@@@@@@@@#############",
"########################ooooo          XXXXXOOOO......OOOO           ooooo#%%%%@@@@@@@@#############",
"########@@@@@@@@@@@@@%%%ooooo          XXXXXOOOO......OOOO           ooooo#@@@@@@@@#################",
"########@@@@@@@@@@@@@%%%%$$$$ooooo                              ooooo######@@@@@@@@#################",
"########@@@@@@@@@@@@@%%%%$$$$ooooo                              ooooo######@@@@@@@@#################",
"########@@@@@@@@@@@@@%%%%$$$$ooooo                              ooooo######@@@@@@@@#################",
"@@@@@@@@@@@@@@@@@####%%%%####ooooo                              ooooo##########%%%%%%%%%%%%%########",
"@@@@@@@@@@@@@@@@@####%%%%####ooooo                              ooooo##########%%%%%%%%%%%%%########",
"@@@@@@@@@@@@@@@@@####%%%%####%%%%$$$$$$$$$%%%%%%%%%%%%%%%%%%%%#################%%%%%%%%%%%%%########",
"@@@@@@@@@@@@@@@@@####%%%%####%%%%$$$$$$$$$%%%%%%%%%%%%%%%%%%%%#################%%%%%%%%%%%%%########",
"@@@@@@@@@@@@@@@@@####%%%%####%%%%$$$$$$$$$%%%%%%%%%%%%%%%%%%%%#################%%%%%%%%%%%%%########",
"#############################%%%%%%%%%%%%%%%%%#########################%%%%%%%%$$$$$$$$%%%%%%%%%%%%%",
"#############################%%%%%%%%%%%%%%%%%#########################%%%%%%%%$$$$$$$$%%%%%%%%%%%%%",
"#############################%%%%%%%%%%%%%%%%%#########################%%%%%%%%$$$$$$$$%%%%%%%%%%%%%",
"#############################%%%%%%%%%%%%%%%%%#########################%%%%%%%%$$$$$$$$%%%%%%%%%%%%%",
"%%%%%%%%#########%%%%####%%%%%%%%%%%%##############################%%%%%%%%####@@@@#########%%%%%%%%",
"%%%%%%%%#########%%%%####%%%%%%%%%%%%##############################%%%%%%%%####@@@@#########%%%%%%%%",
"%%%%%%%%#########%%%%####%%%%%%%%%%%%##############################%%%%%%%%####@@@@#########%%%%%%%%",
"%%%%%%%%#########%%%%####%%%%%%%%%%%%##############################%%%%%%%%####@@@@#########%%%%%%%%"
};