/* XPM */
static char *xpm_[] = {
/* columns rows colors chars-per-pixel */
"100 100 8 1 ",
"  c black",
". c #181818",
"X c #383040",
"o c #605860",
"O c #808080",
"+ c #A8A8A0",
"@ c #C8D0C0",
"# c #E0E8D8",
/* pixels */
"ooooOOOOOOOOOOOOOOOOOOOOOOOOOOOOOOOOOOOOOOOOOOOOOOOOOOOOOOOOOOOOOOOOOOOOOOOOOOOOOOOOOOOOOOOOOOOOOOOO",
"ooooOOOOOOOOOOOOOOOOOOOOOOOOOOOOOOOOOOOOOOOOOOOOOOOOOOOOOOOOOOOOOOOOOOOOOOOOOOOOOOOOOOOOOOOOOOOOOOOO",
"ooooOOOOOOOOOOOOOOOOOOOOOOOOOOOOOOOOOOOOOOOOOOOOOOOOOOOOOOOOOOOOOOOOOOOOOOOOOOOOOOOOOOOOOOOOOOOOOOOO",
"ooooOOOOOOOOOOOOOOOOOOOOOOOOOOOOOOOOOOOOOOOOOOOOOOOOOOOOOOOOOOOOOOOOOOOOOOOOOOOOOOOOOOOOOOOOOOOOOOOO",
"OOOOXXXXXXXXXXXXXXXXXXXXXXXXXXXXXXXXXXXXXXXXXXXXXXXXXXXXXXXXXXXXXXXXXXXXXXXXXXX+++++++++++++++++OOOO",
"OOOOXXXXXXXXXXXXXXXXXXXXXXXXXXXXXXXXXXXXXXXXXXXXXXXXXXXXXXXXXXXXXXXXXXXXXXXXXXX+++++++++++++++++OOOO",
"OOOOXXXXXXXXXXXXXXXXXXXXXXXXXXXXXXXXXXXXXXXXXXXXXXXXXXXXXXXXXXXXXXXXXXXXXXXXXXX+++++++++++++++++OOOO",
"OOOOXXXXXXXXXXXXXXXXXXXXXXXXXXXXXXXXXXXXXXXXXXXXXXXXXXXXXXXXXXXXXXXXXXXXXXXXXXX+++++++++++++++++OOOO",
"OOOOXXXXXXXXXXXXXXXXXXXXXXXXXXXXXXXXXXXXXXXXXXXXXXXXXXXXXXXXXXXXXXXXXXXXXXXXXXX+++++++++++++++++OOOO",
"OOOOXXXXXXXXXXXXXXXXXXXXXXXXXXXXXXXXXXXXXXXXXXXXXXXXXXXXXXXXXXXXXXXXXXXXXXXXXXX+++++++++++++++++OOOO",
"OOOOXXXXXXXXXXXXXXXXXXXXXXXXXXXXXXXXXXXXXXXXXXXXXXXXXXXXXXXXXXXXXXXXXXXXXXXXXXX+++++++++++++++++OOOO",
"OOOOXXXXXXXXXXXXXXXXXXXXXXXXXXXXXXXXXXXXXXXXXXXXXXXXXXXXXXXXXXXXXXXXXXXXXXXXXXX+++++++++++++++++OOOO",
"OOOOXXXXXXXXXXXXX....XXXXXXXX.................................OOOOOOOOOOOOOoooo@@@@+++++++++++++OOOO",
"OOOOXXXXXXXXXXXXX....XXXXXXXX.................................OOOOOOOOOOOOOoooo@@@@+++++++++++++OOOO",
"OOOOXXXXXXXXXXXXX....XXXXXXXX.................................OOOOOOOOOOOOOoooo@@@@+++++++++++++OOOO",
"OOOOXXXXXXXXXXXXX....XXXXXXXX.................................OOOOOOOOOOOOOoooo@@@@+++++++++++++OOOO",
"OOOOXXXXXXXXXXXXX....XXXXXXXX.................................OOOOOOOOOOOOOoooo@@@@+++++++++++++OOOO",
"OOOOXXXXXXXXXXXXXXXXXXXXXXXXXXXXXXXXXXXXXXXXXXXXXXXXXXXXXXXXXX+++++++++OOOOoooo@@@@+++++++++++++OOOO",
"OOOOXXXXXXXXXXXXXXXXXXXXXXXXXXXXXXXXXXXXXXXXXXXXXXXXXXXXXXXXXX+++++++++OOOOoooo@@@@+++++++++++++OOOO",
"OOOOXXXXXXXXXXXXXXXXXXXXXXXXXXXXXXXXXXXXXXXXXXXXXXXXXXXXXXXXXX+++++++++OOOOoooo@@@@+++++++++++++OOOO",
"OOOOXXXXXXXXXXXXXXXXXXXXXXXXXXXXXXXXXXXXXXXXXXXXXXXXXXXXXXXXXX+++++++++OOOOoooo@@@@+++++++++++++OOOO",
"OOOO....XXXX..................................OOOOOOOOoooooooo@@@@@++++OOOOoooo@@@@+++++++++++++OOOO",
"OOOO....XXXX..................................OOOOOOOOoooooooo@@@@@++++OOOOoooo@@@@+++++++++++++OOOO",
"OOOO....XXXX..................................OOOOOOOOoooooooo@@@@@++++OOOOoooo@@@@+++++++++++++OOOO",
"OOOO....XXXX..................................OOOOOOOOoooooooo@@@@@++++OOOOoooo@@@@+++++++++++++OOOO",
"OOOOXXXXXXXXXXXXX....XXXX.....................++++OOOOOOOOoooo@@@@@++++OOOOoooo@@@@@@@@@@@@@++++OOOO",
"OOOOXXXXXXXXXXXXX....XXXX.....................++++OOOOOOOOoooo@@@@@++++OOOOoooo@@@@@@@@@@@@@++++OOOO",
"OOOOXXXXXXXXXXXXX....XXXX.....................++++OOOOOOOOoooo@@@@@++++OOOOoooo@@@@@@@@@@@@@++++OOOO",
"OOOOXXXXXXXXXXXXX....XXXX.....................++++OOOOOOOOoooo@@@@@++++OOOOoooo@@@@@@@@@@@@@++++OOOO",
"OOOO.........................OOOOooooooooooooo@@@@OOOOOOOOoooo@@@@@++++OOOOoooo####@@@@@@@@@++++OOOO",
"OOOO.........................OOOOooooooooooooo@@@@OOOOOOOOoooo@@@@@++++OOOOoooo####@@@@@@@@@++++OOOO",
"OOOO.........................OOOOooooooooooooo@@@@OOOOOOOOoooo@@@@@++++OOOOoooo####@@@@@@@@@++++OOOO",
"OOOO.........................OOOOooooooooooooo@@@@OOOOOOOOoooo@@@@@++++OOOOoooo####@@@@@@@@@++++OOOO",
"OOOO                         ++++OOOOOOOOOoooo@@@@++++OOOOoooo@@@@@@@@@++++oooo####@@@@@@@@@++++OOOO",
"OOOO                         ++++OOOOOOOOOoooo@@@@++++OOOOoooo@@@@@@@@@++++oooo####@@@@@@@@@++++OOOO",
"OOOO                         ++++OOOOOOOOOoooo@@@@++++OOOOoooo@@@@@@@@@++++oooo####@@@@@@@@@++++OOOO",
"OOOO                         ++++OOOOOOOOOoooo@@@@++++OOOOoooo@@@@@@@@@++++oooo####@@@@@@@@@++++OOOO",
"OOOO        ooooooooooooooooo++++OOOOOOOOOoooo@@@@++++OOOOoooo@@@@@@@@@++++oooo@@@@+++++++++++++OOOO",
"OOOO        ooooooooooooooooo++++OOOOOOOOOoooo@@@@++++OOOOoooo@@@@@@@@@++++oooo@@@@+++++++++++++OOOO",
"OOOO        ooooooooooooooooo++++OOOOOOOOOoooo@@@@++++OOOOoooo@@@@@@@@@++++oooo@@@@+++++++++++++OOOO",
"OOOO        ooooooooooooooooo++++OOOOOOOOOoooo@@@@++++OOOOoooo@@@@@@@@@++++oooo@@@@+++++++++++++OOOO",
"OOOO        ooooooooooooooooo++++OOOOOOOOOoooo@@@@++++OOOOoooo@@@@@@@@@++++oooo@@@@+++++++++++++OOOO",
"OOOO    ....OOOOOoooooooooooo++++++++OOOOOoooo@@@@@@@@++++oooo@@@@@@@@@++++oooo####@@@@@@@@@++++OOOO",
"OOOO    ....OOOOOoooooooooooo++++++++OOOOOoooo@@@@@@@@++++oooo@@@@@@@@@++++oooo####@@@@@@@@@++++OOOO",
"OOOO    ....OOOOOoooooooooooo++++++++OOOOOoooo@@@@@@@@++++oooo@@@@@@@@@++++oooo####@@@@@@@@@++++OOOO",
"OOOO    ....OOOOOoooooooooooo++++++++OOOOOoooo@@@@@@@@++++oooo@@@@@@@@@++++oooo####@@@@@@@@@++++OOOO",
"OOOOoooooooo+++++OOOOoooooooo++++++++OOOOOoooo@@@@@@@@++++oooo@@@@@++++++++oooo@@@@@@@@@@@@@++++OOOO",
"OOOOoooooooo+++++OOOOoooooooo++++++++OOOOOoooo@@@@@@@@++++oooo@@@@@++++++++oooo@@@@@@@@@@@@@++++OOOO",
"OOOOoooooooo+++++OOOOoooooooo++++++++OOOOOoooo@@@@@@@@++++oooo@@@@@++++++++oooo@@@@@@@@@@@@@++++OOOO",
"OOOOoooooooo+++++OOOOoooooooo++++++++OOOOOoooo@@@@@@@@++++oooo@@@@@++++++++oooo@@@@@@@@@@@@@++++OOOO",
"OOOOoooooooo+++++OOOOOOOOoooo++++OOOOOOOOOoooo@@@@++++OOOOoooo@@@@@@@@@++++oooo####@@@@@@@@@@@@@OOOO",
"OOOOoooooooo+++++OOOOOOOOoooo++++OOOOOOOOOoooo@@@@++++OOOOoooo@@@@@@@@@++++oooo####@@@@@@@@@@@@@OOOO",
"OOOOoooooooo+++++OOOOOOOOoooo++++OOOOOOOOOoooo@@@@++++OOOOoooo@@@@@@@@@++++oooo####@@@@@@@@@@@@@OOOO",
"OOOOoooooooo+++++OOOOOOOOoooo++++OOOOOOOOOoooo@@@@++++OOOOoooo@@@@@@@@@++++oooo####@@@@@@@@@@@@@OOOO",
"OOOOoooooooo+++++OOOOOOOOoooo++++++++OOOOOoooo@@@@@@@@++++oooo@@@@@++++++++oooo####@@@@@@@@@++++OOOO",
"OOOOoooooooo+++++OOOOOOOOoooo++++++++OOOOOoooo@@@@@@@@++++oooo@@@@@++++++++oooo####@@@@@@@@@++++OOOO",
"OOOOoooooooo+++++OOOOOOOOoooo++++++++OOOOOoooo@@@@@@@@++++oooo@@@@@++++++++oooo####@@@@@@@@@++++OOOO",
"OOOOoooooooo+++++OOOOOOOOoooo++++++++OOOOOoooo@@@@@@@@++++oooo@@@@@++++++++oooo####@@@@@@@@@++++OOOO",
"OOOOoooooooo+++++OOOOOOOOoooo++++OOOOOOOOOoooo@@@@++++OOOOoooo@@@@@@@@@++++oooo####@@@@@@@@@@@@@OOOO",
"OOOOoooooooo+++++OOOOOOOOoooo++++OOOOOOOOOoooo@@@@++++OOOOoooo@@@@@@@@@++++oooo####@@@@@@@@@@@@@OOOO",
"OOOOoooooooo+++++OOOOOOOOoooo++++OOOOOOOOOoooo@@@@++++OOOOoooo@@@@@@@@@++++oooo####@@@@@@@@@@@@@OOOO",
"OOOOoooooooo+++++OOOOOOOOoooo++++OOOOOOOOOoooo@@@@++++OOOOoooo@@@@@@@@@++++oooo####@@@@@@@@@@@@@OOOO",
"OOOOooooooooooooooooooooooooo++++OOOOooooooooo@@@@++++OOOOoooo@@@@@@@@@++++oooo@@@@+++++++++++++OOOO",
"OOOOooooooooooooooooooooooooo++++OOOOooooooooo@@@@++++OOOOoooo@@@@@@@@@++++oooo@@@@+++++++++++++OOOO",
"OOOOooooooooooooooooooooooooo++++OOOOooooooooo@@@@++++OOOOoooo@@@@@@@@@++++oooo@@@@+++++++++++++OOOO",
"OOOOooooooooooooooooooooooooo++++OOOOooooooooo@@@@++++OOOOoooo@@@@@@@@@++++oooo@@@@+++++++++++++OOOO",
"OOOOooooooooooooooooooooooooo++++OOOOooooooooo@@@@++++OOOOoooo@@@@@@@@@++++oooo@@@@+++++++++++++OOOO",
"OOOOooooooooOOOOOOOOOoooooooo++++++++OOOOOoooo@@@@@@@@++++oooo@@@@@@@@@++++oooo####@@@@@@@@@++++OOOO",
"OOOOooooooooOOOOOOOOOoooooooo++++++++OOOOOoooo@@@@@@@@++++oooo@@@@@@@@@++++oooo####@@@@@@@@@++++OOOO",
"OOOOooooooooOOOOOOOOOoooooooo++++++++OOOOOoooo@@@@@@@@++++oooo@@@@@@@@@++++oooo####@@@@@@@@@++++OOOO",
"OOOOooooooooOOOOOOOOOoooooooo++++++++OOOOOoooo@@@@@@@@++++oooo@@@@@@@@@++++oooo####@@@@@@@@@++++OOOO",
"OOOOoooooooo+++++OOOOOOOOoooo++++++++OOOOOoooo@@@@@@@@++++oooo@@@@@++++++++oooo####@@@@@@@@@++++OOOO",
"OOOOoooooooo+++++OOOOOOOOoooo++++++++OOOOOoooo@@@@@@@@++++oooo@@@@@++++++++oooo####@@@@@@@@@++++OOOO",
"OOOOoooooooo+++++OOOOOOOOoooo++++++++OOOOOoooo@@@@@@@@++++oooo@@@@@++++++++oooo####@@@@@@@@@++++OOOO",
"OOOOoooooooo+++++OOOOOOOOoooo++++++++OOOOOoooo@@@@@@@@++++oooo@@@@@++++++++oooo####@@@@@@@@@++++OOOO",
"OOOOoooooooo+++++OOOOOOOOoooo++++OOOOOOOOOoooo@@@@++++OOOOoooo@@@@@@@@@++++oooo####@@@@@@@@@@@@@OOOO",
"OOOOoooooooo+++++OOOOOOOOoooo++++OOOOOOOOOoooo@@@@++++OOOOoooo@@@@@@@@@++++oooo####@@@@@@@@@@@@@OOOO",
"OOOOoooooooo+++++OOOOOOOOoooo++++OOOOOOOOOoooo@@@@++++OOOOoooo@@@@@@@@@++++oooo####@@@@@@@@@@@@@OOOO",
"OOOOoooooooo+++++OOOOOOOOoooo++++OOOOOOOOOoooo@@@@++++OOOOoooo@@@@@@@@@++++oooo####@@@@@@@@@@@@@OOOO",
"OOOOooooooooooooooooooooooooo++++OOOOooooooooo@@@@++++OOOOoooo@@@@@@@@@++++oooo@@@@+++++++++++++OOOO",
"OOOOooooooooooooooooooooooooo++++OOOOooooooooo@@@@++++OOOOoooo@@@@@@@@@++++oooo@@@@+++++++++++++OOOO",
"OOOOooooooooooooooooooooooooo++++OOOOooooooooo@@@@++++OOOOoooo@@@@@@@@@++++oooo@@@@+++++++++++++OOOO",
"OOOOooooooooooooooooooooooooo++++OOOOooooooooo@@@@++++OOOOoooo@@@@@@@@@++++oooo@@@@+++++++++++++OOOO",
"++++ooooooooOOOOOOOOOoooooooo++++++++OOOOOoooo@@@@@@@@++++oooo@@@@@@@@@++++oooo@@@@@@@@@@@@@++++OOOO",
"++++ooooooooOOOOOOOOOoooooooo++++++++OOOOOoooo@@@@@@@@++++oooo@@@@@@@@@++++oooo@@@@@@@@@@@@@++++OOOO",
"++++ooooooooOOOOOOOOOoooooooo++++++++OOOOOoooo@@@@@@@@++++oooo@@@@@@@@@++++oooo@@@@@@@@@@@@@++++OOOO",
"++++ooooooooOOOOOOOOOoooooooo++++++++OOOOOoooo@@@@@@@@++++oooo@@@@@@@@@++++oooo@@@@@@@@@@@@@++++OOOO",
"++++OOOOoooo+++++OOOOOOOOoooo++++++++OOOOOoooo@@@@@@@@++++oooo@@@@@++++++++oooo@@@@@@@@@@@@@++++OOOO",
"++++OOOOoooo+++++OOOOOOOOoooo++++++++OOOOOoooo@@@@@@@@++++oooo@@@@@++++++++oooo@@@@@@@@@@@@@++++OOOO",
"++++OOOOoooo+++++OOOOOOOOoooo++++++++OOOOOoooo@@@@@@@@++++oooo@@@@@++++++++oooo@@@@@@@@@@@@@++++OOOO",
"++++OOOOoooo+++++OOOOOOOOoooo++++++++OOOOOoooo@@@@@@@@++++oooo@@@@@++++++++oooo@@@@@@@@@@@@@++++OOOO",
"++++OOOOoooo+++++OOOOOOOOoooo++++++++OOOOOoooo@@@@@@@@++++oooo@@@@@++++++++oooo@@@@@@@@@@@@@++++OOOO",
"@@@@OOOOoooo+++++++++OOOOoooo++++OOOOOOOOOoooo++++++++OOOOoooo@@@@@@@@@++++oooo####@@@@@@@@@@@@@OOOO",
"@@@@OOOOoooo+++++++++OOOOoooo++++OOOOOOOOOoooo++++++++OOOOoooo@@@@@@@@@++++oooo####@@@@@@@@@@@@@OOOO",
"@@@@OOOOoooo+++++++++OOOOoooo++++OOOOOOOOOoooo++++++++OOOOoooo@@@@@@@@@++++oooo####@@@@@@@@@@@@@OOOO",
"@@@@OOOOoooo+++++++++OOOOoooo++++OOOOOOOOOoooo++++++++OOOOoooo@@@@@@@@@++++oooo####@@@@@@@@@@@@@OOOO",
"@@@@@@@@+++++++++++++++++++++OOOOOOOOOOOOOOOOOOOOOOOOOOOOOOOOOOOOOOOOOOOOOOOOOOOOOOOOOOOOOOOOOOOOOOO",
"@@@@@@@@+++++++++++++++++++++OOOOOOOOOOOOOOOOOOOOOOOOOOOOOOOOOOOOOOOOOOOOOOOOOOOOOOOOOOOOOOOOOOOOOOO",
"@@@@@@@@+++++++++++++++++++++OOOOOOOOOOOOOOOOOOOOOOOOOOOOOOOOOOOOOOOOOOOOOOOOOOOOOOOOOOOOOOOOOOOOOOO",
"@@@@@@@@+++++++++++++++++++++OOOOOOOOOOOOOOOOOOOOOOOOOOOOOOOOOOOOOOOOOOOOOOOOOOOOOOOOOOOOOOOOOOOOOOO"
};
