/* XPM */
static char *_7dea2d624c94af99941ea1fd96a0bfeu3SFZ18LgcOdnBoQ[] = {
/* columns rows colors chars-per-pixel */
"100 100 16 1 ",
"  c black",
". c #980000",
"X c #D03800",
"o c #B87020",
"O c #F88058",
"+ c #D8A860",
"@ c #DEC652",
"# c #E7D65A",
"$ c #F7E752",
"% c #EFDE63",
"& c #0060B0",
"* c #1898E0",
"= c #78C8F8",
"- c #A8B0B8",
"; c #F8E098",
": c #F8F8F8",
/* pixels */
"############%%%%%%%%%#####################%%%%%%%%%%%%#################@@@@@@@@########%%%%%%%%%%%%%",
"############%%%%%%%%%#####################%%%%%%%%%%%%#################@@@@@@@@########%%%%%%%%%%%%%",
"############%%%%%%%%%#####################%%%%%%%%%%%%#################@@@@@@@@########%%%%%%%%%%%%%",
"############%%%%%%%%%#####################%%%%%%%%%%%%#################@@@@@@@@########%%%%%%%%%%%%%",
"####%%%%#########%%%%%%%%#####################%%%%$$$$%%%%%%%%######################################",
"####%%%%#########%%%%%%%%#####################%%%%$$$$%%%%%%%%######################################",
"####%%%%#########%%%%%%%%#####################%%%%$$$$%%%%%%%%######################################",
"####%%%%#########%%%%%%%%#####################%%%%$$$$%%%%%%%%######################################",
"%%%%%%%%%%%%#########@@@@@@@@####%%%%%%%%%########%%%%%%%%%%%%%%%%%#################################",
"%%%%%%%%%%%%#########@@@@@@@@####%%%%%%%%%########%%%%%%%%%%%%%%%%%#################################",
"%%%%%%%%%%%%#########@@@@@@@@####%%%%%%%%%########%%%%%%%%%%%%%%%%%#################################",
"%%%%%%%%%%%%#########@@@@@@@@####%%%%%%%%%########%%%%%%%%%%%%%%%%%#################################",
"############@@@@@@@@@@@@@####%%%%$                               ##@@@@####%%%%%%%%####@@@@@@@@@####",
"############@@@@@@@@@@@@@####%%%%$                               ##@@@@####%%%%%%%%####@@@@@@@@@####",
"############@@@@@@@@@@@@@####%%%%$                               ##@@@@####%%%%%%%%####@@@@@@@@@####",
"############@@@@@@@@@@@@@####%%%%$                               ##@@@@####%%%%%%%%####@@@@@@@@@####",
"############@@@@@@@@@@@@@####%    &&&&*****=============*****&&&&    @@####%%%%%%%%####@@@@@@@@@####",
"@@@@@@@@#########@@@@#########    &&&&*****=============*****&&&&    ##########%%%%%%%%#############",
"@@@@@@@@#########@@@@#########    &&&&*****=============*****&&&&    ##########%%%%%%%%#############",
"@@@@@@@@#########@@@@#########    &&&&*****=============*****&&&&    ##########%%%%%%%%#############",
"@@@@@@@@#########@@@@####     &&&&===============================&&&&    ######%%%%%%%%#############",
"#########################     &&&&===============================&&&&    #######################@@@@",
"#########################     &&&&===============================&&&&    #######################@@@@",
"#########################     &&&&===============================&&&&    #######################@@@@",
"#########################     &&&&===============================&&&&    #######################@@@@",
"%%%%$$$$$$$$%%%%%########     =======================================    %%#########################",
"%%%%$$$$$$$$%%%%%########     =======================================    %%#########################",
"%%%%$$$$$$$$%%%%%########     =======================================    %%#########################",
"%%%%$$$$$$$$%%%%%####    *****====****=======================****====****     ######################",
"$$$$$$$$%%%%#########    *****====****=======================****====****     %########%%%%%$$$$$$$$",
"$$$$$$$$%%%%#########    *****====****=======================****====****     %########%%%%%$$$$$$$$",
"$$$$$$$$%%%%#########    *****====****=======================****====****     %########%%%%%$$$$$$$$",
"$$$$$$$$%%%%#########    *****====****=======================****====****     %########%%%%%$$$$$$$$",
"%%%%####@@@@@@@@@####    =====....::::*****=============*****::::....====     @#############%%%%$$$$",
"%%%%####@@@@@@@@@####    =====....::::*****=============*****::::....====     @#############%%%%$$$$",
"%%%%####@@@@@@@@@####    =====....::::*****=============*****::::....====     @#############%%%%$$$$",
"%%%%####@@@@@@@@@####    =====....::::*****=============*****::::....====     @#############%%%%$$$$",
"########@@@@@@@@@@@@@    =====....    =======================    ....====     ##################%%%%",
"########@@@@@@@@@@@@@    =====....    =======================    ....====     ##################%%%%",
"########@@@@@@@@@@@@@    =====....    =======================    ....====     ##################%%%%",
"########@@@@@@@@@@@@@    =====....    =======================    ....====     ##################%%%%",
"########@@@@@@@@@@@@@    *****OOOO....=======================....OOOO****     ##################%%%%",
"#####################    *****OOOO....=======================....OOOO****     #@@@@@@@@@@@@@@@@@####",
"#####################    *****OOOO....=======================....OOOO****     #@@@@@@@@@@@@@@@@@####",
"#####################    *****OOOO....=======================....OOOO****     #@@@@@@@@@@@@@@@@@####",
"#####################%%%%     =============****=====****=============    ######@@@@@@@@@@@@@@@@@####",
"#########################     =============****=====****=============    %%%%%%####@@@@@@@@@########",
"#########################     =============****=====****=============    %%%%%%####@@@@@@@@@########",
"#########################     =============****=====****=============    %%%%%%####@@@@@@@@@########",
"#####################    *****    ****XXXXXXXXXXXXXXXXXXXXXXX****    ****     %####@@@@@@@@@########",
"####%%%%%%%%#########    *****    ****XXXXXXXXXXXXXXXXXXXXXXX****    ****     %%%%%#################",
"####%%%%%%%%#########    *****    ****XXXXXXXXXXXXXXXXXXXXXXX****    ****     %%%%%#################",
"####%%%%%%%%#########    *****    ****XXXXXXXXXXXXXXXXXXXXXXX****    ****     %%%%%#################",
"####%%%%%%%%#########    *****    ****XXXXXXXXXXXXXXXXXXXXXXX****    ****     %%%%%#################",
"####%%%%$$$$$$$$     ====*****&&&&         *************         &&&&****=====    #@@@@#############",
"####%%%%$$$$$$$$     ====*****&&&&         *************         &&&&****=====    #@@@@#############",
"####%%%%$$$$$$$$     ====*****&&&&         *************         &&&&****=====    #@@@@#############",
"####%%%%$$$$$$$$     ====*****&&&&         *************         &&&&****=====    #@@@@#############",
"%%%%%%%%####    =====****&&&&&oooooooo+++++&&&&         +++++oooooooo&&&&*****====     @@@@@####%%%%",
"%%%%%%%%####    =====****&&&&&oooooooo+++++&&&&         +++++oooooooo&&&&*****====     @@@@@####%%%%",
"%%%%%%%%####    =====****&&&&&oooooooo+++++&&&&         +++++oooooooo&&&&*****====     @@@@@####%%%%",
"%%%%%%%%####    =====****&&&&&oooooooo+++++&&&&         +++++oooooooo&&&&*****====     @@@@@####%%%%",
"%%%%########             -----oooo++++ooooooooooooooooooooooo++++oooo----              %%%%%$$$$$$$$",
"%%%%########             -----oooo++++ooooooooooooooooooooooo++++oooo----              %%%%%$$$$$$$$",
"%%%%########             -----oooo++++ooooooooooooooooooooooo++++oooo----              %%%%%$$$$$$$$",
"%%%%########             -----oooo++++ooooooooooooooooooooooo++++oooo----              %%%%%$$$$$$$$",
"%%%%#############%%%%    -----oooooooo+++++;;;;ooooo;;;;+++++oooooooo----     #########%%%%%$$$$$$$$",
"####%%%%%%%%#########    -----oooooooo+++++;;;;ooooo;;;;+++++oooooooo----     #%%%%$$$$%%%%%%%%%%%%%",
"####%%%%%%%%#########    -----oooooooo+++++;;;;ooooo;;;;+++++oooooooo----     #%%%%$$$$%%%%%%%%%%%%%",
"####%%%%%%%%#########    -----oooooooo+++++;;;;ooooo;;;;+++++oooooooo----     #%%%%$$$$%%%%%%%%%%%%%",
"####%%%%%%%%#############     ****&&&&ooooooooo+++++ooooooooo&&&&****    %%####%%%%$$$$%%%%%%%%%%%%%",
"@@@@####%%%%%%%%%%%%%####     ****&&&&ooooooooo+++++ooooooooo&&&&****    $$$$$$$$$$%%%%%%%%%########",
"@@@@####%%%%%%%%%%%%%####     ****&&&&ooooooooo+++++ooooooooo&&&&****    $$$$$$$$$$%%%%%%%%%########",
"@@@@####%%%%%%%%%%%%%####     ****&&&&ooooooooo+++++ooooooooo&&&&****    $$$$$$$$$$%%%%%%%%%########",
"@@@@####%%%%%%%%%%%%%    *****====****                       ****====****     $$$$$%%%%%%%%%########",
"####@@@@@@@@#####%%%%    *****====****                       ****====****     $%%%%#################",
"####@@@@@@@@#####%%%%    *****====****                       ****====****     $%%%%#################",
"####@@@@@@@@#####%%%%    *****====****                       ****====****     $%%%%#################",
"####@@@@@@@@#####%%%%    *****====****                       ****====****     $%%%%#################",
"#####################    =========    %%%%################@@@    ========     %@@@@@@@@#############",
"#####################    =========    %%%%################@@@    ========     %@@@@@@@@#############",
"#####################    =========    %%%%################@@@    ========     %@@@@@@@@#############",
"#########################             %%%%################@@@            ##%%%%@@@@@@@@#############",
"########@@@@@@@@@@@@@%%%%             ####%%%%%%%%%%%%%%%%###            ##@@@@@@@@#################",
"########@@@@@@@@@@@@@%%%%             ####%%%%%%%%%%%%%%%%###            ##@@@@@@@@#################",
"########@@@@@@@@@@@@@%%%%             ####%%%%%%%%%%%%%%%%###            ##@@@@@@@@#################",
"########@@@@@@@@@@@@@%%%%             ####%%%%%%%%%%%%%%%%###            ##@@@@@@@@#################",
"@@@@@@@@@@@@@@@@@####%%%%####%%%%$$$$$$$$$%%%%%%%%%%%%%%%%%%%%#################%%%%%%%%%%%%%########",
"@@@@@@@@@@@@@@@@@####%%%%####%%%%$$$$$$$$$%%%%%%%%%%%%%%%%%%%%#################%%%%%%%%%%%%%########",
"@@@@@@@@@@@@@@@@@####%%%%####%%%%$$$$$$$$$%%%%%%%%%%%%%%%%%%%%#################%%%%%%%%%%%%%########",
"@@@@@@@@@@@@@@@@@####%%%%####%%%%$$$$$$$$$%%%%%%%%%%%%%%%%%%%%#################%%%%%%%%%%%%%########",
"@@@@@@@@@@@@@@@@@####%%%%####%%%%$$$$$$$$$%%%%%%%%%%%%%%%%%%%%#################%%%%%%%%%%%%%########",
"#############################%%%%%%%%%%%%%%%%%#########################%%%%%%%%$$$$$$$$%%%%%%%%%%%%%",
"#############################%%%%%%%%%%%%%%%%%#########################%%%%%%%%$$$$$$$$%%%%%%%%%%%%%",
"#############################%%%%%%%%%%%%%%%%%#########################%%%%%%%%$$$$$$$$%%%%%%%%%%%%%",
"#############################%%%%%%%%%%%%%%%%%#########################%%%%%%%%$$$$$$$$%%%%%%%%%%%%%",
"%%%%%%%%#########%%%%####%%%%%%%%%%%%##############################%%%%%%%%####@@@@#########%%%%%%%%",
"%%%%%%%%#########%%%%####%%%%%%%%%%%%##############################%%%%%%%%####@@@@#########%%%%%%%%",
"%%%%%%%%#########%%%%####%%%%%%%%%%%%##############################%%%%%%%%####@@@@#########%%%%%%%%",
"%%%%%%%%#########%%%%####%%%%%%%%%%%%##############################%%%%%%%%####@@@@#########%%%%%%%%"
};